<mxfile host="app.diagrams.net" modified="2022-11-17T07:35:20.939Z" agent="5.0 (Windows NT 10.0; Win64; x64) AppleWebKit/537.36 (KHTML, like Gecko) Chrome/107.0.0.0 Safari/537.36" etag="71ZFuWYHiD_zyY9EY0mU" version="20.3.2" type="github">
  <diagram id="C1fvgAsR2xbMvVpoP_B1" name="第 1 页">
    <mxGraphModel dx="1422" dy="786" grid="1" gridSize="10" guides="1" tooltips="1" connect="1" arrows="1" fold="1" page="1" pageScale="1" pageWidth="827" pageHeight="1169" math="0" shadow="0">
      <root>
        <mxCell id="0" />
        <mxCell id="1" parent="0" />
        <mxCell id="Xd9sBZMMEx7LLyclA-_H-5" style="rounded=0;orthogonalLoop=1;jettySize=auto;html=1;exitX=1;exitY=0.5;exitDx=0;exitDy=0;entryX=-0.006;entryY=0.422;entryDx=0;entryDy=0;entryPerimeter=0;fontSize=16;" edge="1" parent="1" source="Xd9sBZMMEx7LLyclA-_H-1" target="Xd9sBZMMEx7LLyclA-_H-2">
          <mxGeometry relative="1" as="geometry" />
        </mxCell>
        <mxCell id="Xd9sBZMMEx7LLyclA-_H-1" value="源文件&lt;br style=&quot;font-size: 16px;&quot;&gt;hello.c" style="ellipse;whiteSpace=wrap;html=1;fillColor=#dae8fc;strokeColor=#6c8ebf;fontSize=16;" vertex="1" parent="1">
          <mxGeometry x="100" y="20" width="120" height="80" as="geometry" />
        </mxCell>
        <mxCell id="Xd9sBZMMEx7LLyclA-_H-8" style="edgeStyle=orthogonalEdgeStyle;rounded=0;orthogonalLoop=1;jettySize=auto;html=1;entryX=0.5;entryY=0;entryDx=0;entryDy=0;fontSize=16;" edge="1" parent="1" source="Xd9sBZMMEx7LLyclA-_H-2" target="Xd9sBZMMEx7LLyclA-_H-7">
          <mxGeometry relative="1" as="geometry" />
        </mxCell>
        <mxCell id="Xd9sBZMMEx7LLyclA-_H-2" value="预编译&lt;br&gt;gcc -E hello.c -o hello.i" style="rounded=0;whiteSpace=wrap;html=1;fillColor=#f8cecc;strokeColor=#b85450;fontSize=16;" vertex="1" parent="1">
          <mxGeometry x="330" y="80" width="170" height="90" as="geometry" />
        </mxCell>
        <mxCell id="Xd9sBZMMEx7LLyclA-_H-6" style="edgeStyle=none;rounded=0;orthogonalLoop=1;jettySize=auto;html=1;entryX=0;entryY=0.5;entryDx=0;entryDy=0;fontSize=16;" edge="1" parent="1" source="Xd9sBZMMEx7LLyclA-_H-3" target="Xd9sBZMMEx7LLyclA-_H-2">
          <mxGeometry relative="1" as="geometry" />
        </mxCell>
        <mxCell id="Xd9sBZMMEx7LLyclA-_H-3" value="头文件&lt;br style=&quot;font-size: 16px;&quot;&gt;stdio.h" style="ellipse;whiteSpace=wrap;html=1;fillColor=#dae8fc;strokeColor=#6c8ebf;fontSize=16;" vertex="1" parent="1">
          <mxGeometry x="100" y="140" width="120" height="80" as="geometry" />
        </mxCell>
        <mxCell id="Xd9sBZMMEx7LLyclA-_H-10" style="edgeStyle=orthogonalEdgeStyle;rounded=0;orthogonalLoop=1;jettySize=auto;html=1;entryX=1;entryY=0.5;entryDx=0;entryDy=0;fontSize=16;" edge="1" parent="1" source="Xd9sBZMMEx7LLyclA-_H-7" target="Xd9sBZMMEx7LLyclA-_H-9">
          <mxGeometry relative="1" as="geometry" />
        </mxCell>
        <mxCell id="Xd9sBZMMEx7LLyclA-_H-7" value="预编译文件&lt;br&gt;hello.i" style="ellipse;whiteSpace=wrap;html=1;fillColor=#dae8fc;strokeColor=#6c8ebf;fontSize=16;" vertex="1" parent="1">
          <mxGeometry x="570" y="253" width="120" height="80" as="geometry" />
        </mxCell>
        <mxCell id="Xd9sBZMMEx7LLyclA-_H-12" style="edgeStyle=orthogonalEdgeStyle;rounded=0;orthogonalLoop=1;jettySize=auto;html=1;exitX=0;exitY=0.5;exitDx=0;exitDy=0;entryX=0.5;entryY=0;entryDx=0;entryDy=0;fontSize=16;" edge="1" parent="1" source="Xd9sBZMMEx7LLyclA-_H-9" target="Xd9sBZMMEx7LLyclA-_H-11">
          <mxGeometry relative="1" as="geometry" />
        </mxCell>
        <mxCell id="Xd9sBZMMEx7LLyclA-_H-9" value="编译&lt;br&gt;gcc -S hello.i -o hello.s" style="rounded=0;whiteSpace=wrap;html=1;fillColor=#f8cecc;strokeColor=#b85450;fontSize=16;" vertex="1" parent="1">
          <mxGeometry x="330" y="248" width="170" height="90" as="geometry" />
        </mxCell>
        <mxCell id="Xd9sBZMMEx7LLyclA-_H-14" style="edgeStyle=orthogonalEdgeStyle;rounded=0;orthogonalLoop=1;jettySize=auto;html=1;entryX=0;entryY=0.5;entryDx=0;entryDy=0;fontSize=16;" edge="1" parent="1" source="Xd9sBZMMEx7LLyclA-_H-11" target="Xd9sBZMMEx7LLyclA-_H-13">
          <mxGeometry relative="1" as="geometry" />
        </mxCell>
        <mxCell id="Xd9sBZMMEx7LLyclA-_H-11" value="汇编文件&lt;br style=&quot;font-size: 16px;&quot;&gt;hello.s" style="ellipse;whiteSpace=wrap;html=1;fillColor=#dae8fc;strokeColor=#6c8ebf;fontSize=16;" vertex="1" parent="1">
          <mxGeometry x="100" y="420" width="120" height="80" as="geometry" />
        </mxCell>
        <mxCell id="Xd9sBZMMEx7LLyclA-_H-16" style="edgeStyle=orthogonalEdgeStyle;rounded=0;orthogonalLoop=1;jettySize=auto;html=1;entryX=0.5;entryY=0;entryDx=0;entryDy=0;fontSize=16;" edge="1" parent="1" source="Xd9sBZMMEx7LLyclA-_H-13" target="Xd9sBZMMEx7LLyclA-_H-15">
          <mxGeometry relative="1" as="geometry" />
        </mxCell>
        <mxCell id="Xd9sBZMMEx7LLyclA-_H-13" value="汇编&lt;br&gt;gcc -c hello.s -o hello.o" style="rounded=0;whiteSpace=wrap;html=1;fillColor=#f8cecc;strokeColor=#b85450;fontSize=16;" vertex="1" parent="1">
          <mxGeometry x="330" y="415" width="170" height="90" as="geometry" />
        </mxCell>
        <mxCell id="Xd9sBZMMEx7LLyclA-_H-19" style="edgeStyle=none;rounded=0;orthogonalLoop=1;jettySize=auto;html=1;exitX=0;exitY=0.5;exitDx=0;exitDy=0;entryX=1;entryY=0.25;entryDx=0;entryDy=0;fontSize=16;" edge="1" parent="1" source="Xd9sBZMMEx7LLyclA-_H-15" target="Xd9sBZMMEx7LLyclA-_H-18">
          <mxGeometry relative="1" as="geometry" />
        </mxCell>
        <mxCell id="Xd9sBZMMEx7LLyclA-_H-15" value="目标文件&lt;br style=&quot;font-size: 16px;&quot;&gt;hello.o" style="ellipse;whiteSpace=wrap;html=1;fillColor=#dae8fc;strokeColor=#6c8ebf;fontSize=16;" vertex="1" parent="1">
          <mxGeometry x="570" y="550" width="120" height="80" as="geometry" />
        </mxCell>
        <mxCell id="Xd9sBZMMEx7LLyclA-_H-20" style="edgeStyle=none;rounded=0;orthogonalLoop=1;jettySize=auto;html=1;exitX=0;exitY=0.5;exitDx=0;exitDy=0;entryX=0.994;entryY=0.644;entryDx=0;entryDy=0;entryPerimeter=0;fontSize=16;" edge="1" parent="1" source="Xd9sBZMMEx7LLyclA-_H-17" target="Xd9sBZMMEx7LLyclA-_H-18">
          <mxGeometry relative="1" as="geometry" />
        </mxCell>
        <mxCell id="Xd9sBZMMEx7LLyclA-_H-17" value="静态库&lt;br style=&quot;font-size: 16px;&quot;&gt;libc.a" style="ellipse;whiteSpace=wrap;html=1;fillColor=#d5e8d4;strokeColor=#82b366;fontSize=16;" vertex="1" parent="1">
          <mxGeometry x="570" y="680" width="120" height="80" as="geometry" />
        </mxCell>
        <mxCell id="Xd9sBZMMEx7LLyclA-_H-22" style="edgeStyle=none;rounded=0;orthogonalLoop=1;jettySize=auto;html=1;exitX=0;exitY=0.5;exitDx=0;exitDy=0;entryX=1;entryY=0.5;entryDx=0;entryDy=0;fontSize=16;" edge="1" parent="1" source="Xd9sBZMMEx7LLyclA-_H-18" target="Xd9sBZMMEx7LLyclA-_H-21">
          <mxGeometry relative="1" as="geometry" />
        </mxCell>
        <mxCell id="Xd9sBZMMEx7LLyclA-_H-18" value="链接&lt;br&gt;ld hello.o ..." style="rounded=0;whiteSpace=wrap;html=1;fillColor=#f8cecc;strokeColor=#b85450;fontSize=16;" vertex="1" parent="1">
          <mxGeometry x="330" y="620" width="170" height="90" as="geometry" />
        </mxCell>
        <mxCell id="Xd9sBZMMEx7LLyclA-_H-21" value="可执行文件&lt;br style=&quot;font-size: 16px;&quot;&gt;test" style="ellipse;whiteSpace=wrap;html=1;fillColor=#dae8fc;strokeColor=#6c8ebf;fontSize=16;" vertex="1" parent="1">
          <mxGeometry x="110" y="625" width="120" height="80" as="geometry" />
        </mxCell>
      </root>
    </mxGraphModel>
  </diagram>
</mxfile>
